<svg xmlns="http://www.w3.org/2000/svg" viewBox="0 0 149.62 118.78"><defs><style>.cls-1{fill:#fff;}</style></defs><title>Asset 5</title><g id="Layer_2" data-name="Layer 2"><g id="Layer_1-2" data-name="Layer 1"><path class="cls-1" d="M75.24,60c0,14.49,0,29,0,43.47,0,3.46-.16,6.81-3.77,8.53-3.88,1.84-6.93.17-9.95-2.37-10.31-8.69-20.63-17.37-31.21-25.73a17.09,17.09,0,0,0-8.41-3.08c-4.61-.5-9.31,0-14-.16C2.88,80.54.21,78.05.12,73Q-.12,60.24.11,47.5c.09-5.36,2.78-7.85,8.08-8a2.78,2.78,0,0,1,.5,0c13.5,2.47,23.86-2.87,33.2-12.3C48.18,20.8,55.44,15.33,62.66,10a11.92,11.92,0,0,1,8.53-1.66c3.49.73,4.09,4.27,4.07,7.68C75.2,30.68,75.24,45.34,75.24,60Z"/><path class="cls-1" d="M149.62,60.55a86.2,86.2,0,0,1-19.44,54.36c-4.05,5-9.42,5.15-13,.43-2.76-3.64-1.86-7,.84-10.41a69.89,69.89,0,0,0,15.85-45.21c-.11-16.93-5.75-31.84-16.24-45.12-1.82-2.32-3.35-6.16-2.78-8.81,1.41-6.53,9-7.79,13.59-2.49C142.45,19.6,149.33,38.61,149.62,60.55Z"/><path class="cls-1" d="M117,61.06a54.34,54.34,0,0,1-10,30.42c-3,4.25-7,5.28-10.69,2.86C92.1,91.6,91.15,87.17,94,82.7c10.08-15.73,9.85-31.19-1-46.48-3.22-4.55-2.56-8.61,1.72-11.66,3.51-2.51,7.81-1.66,10.86,2.27C113.31,36.79,116.94,48.13,117,61.06Z"/></g></g></svg>