<svg width="381" height="166" viewBox="0 0 381 166" fill="none" xmlns="http://www.w3.org/2000/svg">
<path d="M0 76.4906H28.4C36.7 76.4906 43.6 72.9906 48.8 56.9906C54.3 40.1906 56.5 -8.90936 59.1 8.79064C61.7 26.4906 73.6 181.091 78.9 159.791C84.2 138.491 81.6 10.5906 88.7 20.2906C95.8 29.9906 100.3 139.291 106.5 122.791C112.7 106.291 103.5 74.5906 119.2 73.2906H156.2" stroke="#D94F4F" stroke-width="8" stroke-miterlimit="10"/>
<path d="M81.9629 92V53.7286H88.9657L101.886 77.2343L114.751 53.7286H121.646V92H113.991V68.6571L104.111 86.2457H99.3886L89.5629 68.82V92H81.9629ZM140.264 92V53.7286H148.679V92H140.264ZM167.293 92V53.7286H174.296L187.216 77.2343L200.082 53.7286H206.976V92H199.322V68.6571L189.442 86.2457H184.719L174.893 68.82V92H167.293ZM225.595 92V53.7286H234.009V92H225.595ZM271.081 92.5971C266.955 92.5971 263.426 91.7829 260.495 90.1543C257.564 88.5257 255.302 86.2457 253.709 83.3143C252.153 80.3467 251.375 76.8543 251.375 72.8371C251.375 68.8562 252.153 65.4 253.709 62.4686C255.302 59.501 257.564 57.2029 260.495 55.5743C263.426 53.9457 266.955 53.1314 271.081 53.1314C273.614 53.1314 276.039 53.5295 278.355 54.3257C280.671 55.1219 282.571 56.2076 284.055 57.5829L281.449 64.26C279.821 62.9933 278.174 62.0705 276.509 61.4914C274.881 60.8762 273.162 60.5686 271.352 60.5686C267.697 60.5686 264.928 61.6362 263.046 63.7714C261.201 65.8705 260.278 68.8924 260.278 72.8371C260.278 76.7819 261.201 79.8219 263.046 81.9571C264.928 84.0924 267.697 85.16 271.352 85.16C273.162 85.16 274.881 84.8705 276.509 84.2914C278.174 83.6762 279.821 82.7352 281.449 81.4686L284.055 88.1457C282.571 89.4848 280.671 90.5705 278.355 91.4029C276.039 92.199 273.614 92.5971 271.081 92.5971ZM300.429 92V53.7286H317.909C322.179 53.7286 325.472 54.76 327.789 56.8229C330.105 58.8857 331.263 61.7629 331.263 65.4543C331.263 68.3133 330.521 70.7019 329.037 72.62C327.589 74.5019 325.509 75.7867 322.794 76.4743C324.712 77.0533 326.287 78.4467 327.517 80.6543L333.706 92H324.423L317.8 79.7857C317.257 78.8086 316.588 78.139 315.791 77.7771C314.995 77.379 314.054 77.18 312.969 77.18H308.843V92H300.429ZM308.843 71.1H316.389C320.912 71.1 323.174 69.2905 323.174 65.6714C323.174 62.0886 320.912 60.2971 316.389 60.2971H308.843V71.1ZM357.673 92V74.7371L342.907 53.7286H352.678L362.016 67.1914L371.353 53.7286H380.744L366.087 74.7914V92H357.673Z" fill="white"/>
</svg>
