<svg xmlns="http://www.w3.org/2000/svg" viewBox="0 0 100.4 144.52"><defs><style>.cls-1{fill:#fff;}</style></defs><title>Asset 4</title><g id="Layer_2" data-name="Layer 2"><g id="Layer_1-2" data-name="Layer 1"><path class="cls-1" d="M22.14,50c0-7.67-.13-15.33,0-23A27.79,27.79,0,0,1,50,0c15.35-.11,28,11.89,28.23,27.09s.18,30.65,0,46c-.16,15.17-12.84,27.34-28.1,27.32A28,28,0,0,1,22.16,73C22,65.3,22.14,57.63,22.14,50Z"/><path class="cls-1" d="M44,132.57V122.29c-2.57-.61-5-1.12-7.38-1.77A49.61,49.61,0,0,1,.06,74C0,69.85,0,65.68.07,61.52c.07-3.7,1.92-6.06,5.72-6.19s5.88,2.33,6.17,5.85c.34,4.31.06,8.66.21,13,.72,20.43,17.49,36.27,38.27,36.22,20.43,0,37.17-16,37.81-36.18.13-4,0-8,.12-12s1.84-6.94,6.22-6.86,5.92,3.07,5.81,7.11c-.17,6,.3,12.08-.65,17.95C96.27,101.88,80.41,117.64,59,121.58c-.8.15-1.57.43-2.55.7v10.25c6.56,0,13.17-.31,19.72.17,2.44.18,5.66,1.62,6.92,3.54,2.56,3.88-1,8.21-6.37,8.24-15,.07-30,0-45,0-3,0-6,0-9,0-3.79-.08-6-2.16-6.07-5.85s2.3-5.92,6-6C29.63,132.44,36.6,132.57,44,132.57Z"/></g></g></svg>