<svg xmlns="http://www.w3.org/2000/svg" viewBox="0 0 29.95 26.28"><defs><style>.cls-1,.cls-2{fill:none;stroke:#1d1d1b;stroke-miterlimit:10;stroke-width:2px;}.cls-2{stroke-linecap:round;}</style></defs><title>Asset 7</title><g id="Layer_2" data-name="Layer 2"><g id="Layer_1-2" data-name="Layer 1"><path class="cls-1" d="M17.2,13.14V2c0-.42-.67-1-1.33-1s-.8.17-.8.17L6.93,8.51H1.81c-.46,0-.81.17-.81.82V17c0,.65.35.81.81.81H6.93l8.14,7.35s.15.16.8.16,1.33-.57,1.33-1Z"/><line class="cls-1" x1="6.46" y1="8.51" x2="6.46" y2="17.77"/><path class="cls-2" d="M21.4,16.2a3.66,3.66,0,0,0,0-7.15"/><path class="cls-2" d="M23.83,4.94a8.34,8.34,0,0,1,0,15.38"/></g></g></svg>